<svg width="289" height="254" viewBox="0 0 289 254" fill="none" xmlns="http://www.w3.org/2000/svg">
<g clip-path="url(#clip0_15_2)">
<path d="M277.125 156.375C283.375 156.375 288.125 151.375 288.125 145.25V111.125C288.125 105 283.375 99.875 277.125 99.875C270.75 99.875 266 105 266 111.125V145.25C266 151.375 270.75 156.375 277.125 156.375Z" fill="white" fill-opacity="0.85"/>
<path d="M223.875 217.625C230.125 217.625 235 212.625 235 206.5V47.375C235 41.25 230.125 36.125 223.875 36.125C217.5 36.125 212.875 41.25 212.875 47.375V206.5C212.875 212.625 217.5 217.625 223.875 217.625Z" fill="white" fill-opacity="0.85"/>
<path d="M170.625 172.75C177 172.75 181.75 167.875 181.75 161.75V92C181.75 85.875 177 81 170.625 81C164.25 81 159.625 85.875 159.625 92V161.75C159.625 167.875 164.25 172.75 170.625 172.75Z" fill="white" fill-opacity="0.85"/>
<path d="M117.375 253.875C123.75 253.875 128.5 248.875 128.5 242.75V11.125C128.5 5 123.75 0 117.375 0C111.125 0 106.375 5 106.375 11.125V242.75C106.375 248.875 111.125 253.875 117.375 253.875Z" fill="white" fill-opacity="0.85"/>
<path d="M64.125 193.5C70.5 193.5 75.375 188.5 75.375 182.375V71.5C75.375 65.375 70.5 60.25 64.125 60.25C57.875 60.25 53.25 65.375 53.25 71.5V182.375C53.25 188.5 57.875 193.5 64.125 193.5Z" fill="white" fill-opacity="0.85"/>
<path d="M11 158.125C17.375 158.125 22.125 153.125 22.125 147V106.875C22.125 100.75 17.375 95.625 11 95.625C4.625 95.625 0 100.75 0 106.875V147C0 153.125 4.625 158.125 11 158.125Z" fill="white" fill-opacity="0.85"/>
</g>
<defs>
<clipPath id="clip0_15_2">
<rect width="288.125" height="253.875" fill="white"/>
</clipPath>
</defs>
</svg>
